# xmcd CD database file
#
# Track frame offsets:
#	150
#	27335
#	36277
#	50477
#	60277
#	79607
#	89830
#	105665
#	127892
#	145255
#	151925
#	176935
#
# Disc length: 2391 seconds
#
# Revision: 5
# Processed by: cddbd v1.5.2PL0 Copyright (c) Steve Scherf et al.
# Submitted via: CDex 1.70beta3
#
DISCID=9c09550c
DTITLE=RC SUCCESSION - コブラの悩み
DYEAR=1988
DGENRE=J-Rock
TTITLE0=アイ・シャル・ビー・リリースト
TTITLE1=言論の自由
TTITLE2=CALL ME
TTITLE3=ヘルプ!
TTITLE4=明日なき世界
TTITLE5=からすの赤ちゃん
TTITLE6=軽薄なジャーナリスト
TTITLE7=心配させないで･･･
TTITLE8=パラダイス
TTITLE9=俺は電気
TTITLE10=あきれて物も言えない
TTITLE11=君はLOVE ME TENDERを聞いたか? (Special Short Ver.)
EXTD=YEAR: 1988
EXTT0=
EXTT1=
EXTT2=
EXTT3=
EXTT4=
EXTT5=
EXTT6=
EXTT7=
EXTT8=
EXTT9=
EXTT10=
EXTT11=
PLAYORDER=
